<?xml version="1.0" encoding="UTF-8" standalone="no"?>
<!DOCTYPE svg PUBLIC "-//W3C//DTD SVG 1.1//EN"
 "http://www.w3.org/Graphics/SVG/1.1/DTD/svg11.dtd">
<!-- Generated by graphviz version 2.43.0 (0)
 -->
<!-- Title: G Pages: 1 -->
<svg width="789pt" height="452pt"
 viewBox="0.00 0.00 789.00 452.00" xmlns="http://www.w3.org/2000/svg" xmlns:xlink="http://www.w3.org/1999/xlink">
<g id="graph0" class="graph" transform="scale(1 1) rotate(0) translate(4 448)">
<title>G</title>
<polygon fill="white" stroke="transparent" points="-4,4 -4,-448 785,-448 785,4 -4,4"/>
<!-- in -->
<g id="node1" class="node">
<title>in</title>
<polygon fill="darkmagenta" stroke="black" points="147,-107 93,-107 93,-71 147,-71 147,-107"/>
<text text-anchor="middle" x="120" y="-85.3" font-family="Ubuntu Condensed" font-size="14.00" fill="white">Input</text>
</g>
<!-- mix -->
<g id="node16" class="node">
<title>mix</title>
<polygon fill="darkmagenta" stroke="black" points="425,-241 371,-241 371,-205 425,-205 425,-241"/>
<text text-anchor="middle" x="398" y="-219.3" font-family="Ubuntu Condensed" font-size="14.00" fill="white">mixer</text>
</g>
<!-- in&#45;&gt;mix -->
<g id="edge5" class="edge">
<title>in&#45;&gt;mix</title>
<path fill="none" stroke="black" d="M129.45,-70.8C139.69,-51.16 159.01,-20.94 186,-8 207.64,2.38 218.6,2.87 240,-8 318.29,-47.77 366.84,-146.92 386.68,-195.42"/>
<polygon fill="black" stroke="black" points="383.53,-196.96 390.48,-204.96 390.03,-194.37 383.53,-196.96"/>
</g>
<!-- fx1 -->
<g id="node18" class="node">
<title>fx1</title>
<polygon fill="darkgreen" stroke="black" points="240,-215 186,-215 186,-179 240,-179 240,-215"/>
<text text-anchor="middle" x="213" y="-193.3" font-family="Ubuntu Condensed" font-size="14.00" fill="white">fx1</text>
</g>
<!-- in&#45;&gt;fx1 -->
<g id="edge6" class="edge">
<title>in&#45;&gt;fx1</title>
<path fill="none" stroke="black" d="M134.75,-107.08C147.61,-123.75 167.54,-149.01 186,-170 186.4,-170.46 186.81,-170.92 187.22,-171.38"/>
<polygon fill="black" stroke="black" points="184.8,-173.92 194.15,-178.91 189.96,-169.18 184.8,-173.92"/>
</g>
<!-- fx2 -->
<g id="node19" class="node">
<title>fx2</title>
<polygon fill="darkgreen" stroke="black" points="240,-107 186,-107 186,-71 240,-71 240,-107"/>
<text text-anchor="middle" x="213" y="-85.3" font-family="Ubuntu Condensed" font-size="14.00" fill="white">fx2</text>
</g>
<!-- in&#45;&gt;fx2 -->
<g id="edge7" class="edge">
<title>in&#45;&gt;fx2</title>
<path fill="none" stroke="black" d="M147.06,-76.9C153.8,-74.98 161.1,-73.93 168,-75 170.66,-75.41 173.37,-75.96 176.08,-76.59"/>
<polygon fill="black" stroke="black" points="175.23,-79.98 185.79,-79.21 177.05,-73.23 175.23,-79.98"/>
</g>
<!-- fx3 -->
<g id="node20" class="node">
<title>fx3</title>
<polygon fill="darkgreen" stroke="black" points="240,-269 186,-269 186,-233 240,-233 240,-269"/>
<text text-anchor="middle" x="213" y="-247.3" font-family="Ubuntu Condensed" font-size="14.00" fill="white">fx3</text>
</g>
<!-- in&#45;&gt;fx3 -->
<g id="edge8" class="edge">
<title>in&#45;&gt;fx3</title>
<path fill="none" stroke="black" d="M135.07,-107.13C139.86,-113.79 145,-121.52 149,-129 170.37,-168.96 161.59,-185.83 186,-224 186.18,-224.29 186.37,-224.57 186.56,-224.86"/>
<polygon fill="black" stroke="black" points="183.91,-227.15 192.78,-232.93 189.45,-222.87 183.91,-227.15"/>
</g>
<!-- fx4 -->
<g id="node21" class="node">
<title>fx4</title>
<polygon fill="darkgreen" stroke="black" points="240,-161 186,-161 186,-125 240,-125 240,-161"/>
<text text-anchor="middle" x="213" y="-139.3" font-family="Ubuntu Condensed" font-size="14.00" fill="white">fx4</text>
</g>
<!-- in&#45;&gt;fx4 -->
<g id="edge9" class="edge">
<title>in&#45;&gt;fx4</title>
<path fill="none" stroke="black" d="M147.32,-104.62C156.56,-110.1 167.1,-116.36 176.95,-122.2"/>
<polygon fill="black" stroke="black" points="175.35,-125.32 185.74,-127.42 178.92,-119.3 175.35,-125.32"/>
</g>
<!-- fx5 -->
<g id="node22" class="node">
<title>fx5</title>
<polygon fill="darkgreen" stroke="black" points="240,-53 186,-53 186,-17 240,-17 240,-53"/>
<text text-anchor="middle" x="213" y="-31.3" font-family="Ubuntu Condensed" font-size="14.00" fill="white">fx5</text>
</g>
<!-- in&#45;&gt;fx5 -->
<g id="edge10" class="edge">
<title>in&#45;&gt;fx5</title>
<path fill="none" stroke="black" d="M147.32,-73.38C156.56,-67.9 167.1,-61.64 176.95,-55.8"/>
<polygon fill="black" stroke="black" points="178.92,-58.7 185.74,-50.58 175.35,-52.68 178.92,-58.7"/>
</g>
<!-- fx6 -->
<g id="node23" class="node">
<title>fx6</title>
<polygon fill="darkgreen" stroke="black" points="240,-323 186,-323 186,-287 240,-287 240,-323"/>
<text text-anchor="middle" x="213" y="-301.3" font-family="Ubuntu Condensed" font-size="14.00" fill="white">fx6</text>
</g>
<!-- in&#45;&gt;fx6 -->
<g id="edge11" class="edge">
<title>in&#45;&gt;fx6</title>
<path fill="none" stroke="black" d="M135.9,-107.26C140.65,-113.8 145.56,-121.44 149,-129 177.26,-191.1 152.99,-218.28 186,-278 186.11,-278.19 186.21,-278.38 186.32,-278.57"/>
<polygon fill="black" stroke="black" points="183.53,-280.69 192.16,-286.84 189.25,-276.65 183.53,-280.69"/>
</g>
<!-- out -->
<g id="node2" class="node">
<title>out</title>
<polygon fill="darkmagenta" stroke="black" points="575,-268 521,-268 521,-232 575,-232 575,-268"/>
<text text-anchor="middle" x="548" y="-246.3" font-family="Ubuntu Condensed" font-size="14.00" fill="white">Output</text>
</g>
<!-- lpf -->
<g id="node15" class="node">
<title>lpf</title>
<polygon fill="mediumpurple" stroke="black" points="690,-269 612,-269 612,-231 690,-231 690,-269"/>
<text text-anchor="middle" x="651" y="-253.8" font-family="Ubuntu Condensed" font-size="14.00" fill="white">LPF</text>
<text text-anchor="middle" x="651" y="-238.8" font-family="Ubuntu Condensed" font-size="14.00" fill="white">330Ω + 22nF</text>
</g>
<!-- out&#45;&gt;lpf -->
<g id="edge2" class="edge">
<title>out&#45;&gt;lpf</title>
<path fill="none" stroke="black" d="M575.01,-250C583.16,-250 592.44,-250 601.62,-250"/>
<polygon fill="black" stroke="black" points="601.89,-253.5 611.89,-250 601.89,-246.5 601.89,-253.5"/>
</g>
<!-- sw1 -->
<g id="node3" class="node">
<title>sw1</title>
<polygon fill="darkslateblue" stroke="black" points="149,-336 91,-336 91,-332 87,-332 87,-328 91,-328 91,-308 87,-308 87,-304 91,-304 91,-300 149,-300 149,-336"/>
<polyline fill="none" stroke="black" points="91,-332 95,-332 95,-328 91,-328 "/>
<polyline fill="none" stroke="black" points="91,-308 95,-308 95,-304 91,-304 "/>
<text text-anchor="middle" x="120" y="-314.3" font-family="Ubuntu Condensed" font-size="14.00" fill="white">Switch 1</text>
</g>
<!-- cnt -->
<g id="node12" class="node">
<title>cnt</title>
<polygon fill="#a2cd5a" stroke="black" points="240,-377 186,-377 186,-341 240,-341 240,-377"/>
<text text-anchor="middle" x="213" y="-355.3" font-family="Ubuntu Condensed" font-size="14.00" fill="white">Scaler</text>
</g>
<!-- sw1&#45;&gt;cnt -->
<g id="edge19" class="edge">
<title>sw1&#45;&gt;cnt</title>
<path fill="none" stroke="black" d="M143.31,-336.25C150.51,-341.37 158.77,-346.49 167,-350 169.84,-351.21 172.85,-352.26 175.92,-353.17"/>
<polygon fill="black" stroke="black" points="175.2,-356.6 185.75,-355.63 176.9,-349.81 175.2,-356.6"/>
</g>
<!-- sw1&#45;&gt;fx1 -->
<g id="edge26" class="edge">
<title>sw1&#45;&gt;fx1</title>
<path fill="none" stroke="black" d="M141.61,-299.99C144.28,-297.14 146.84,-294.1 149,-291 160.38,-274.67 157.07,-267.25 167,-250 174.14,-237.6 176.79,-234.96 186,-224 186.3,-223.64 186.61,-223.28 186.92,-222.91"/>
<polygon fill="black" stroke="black" points="189.69,-225.07 193.76,-215.28 184.48,-220.4 189.69,-225.07"/>
</g>
<!-- sw2 -->
<g id="node4" class="node">
<title>sw2</title>
<polygon fill="darkslateblue" stroke="black" points="149,-228 91,-228 91,-224 87,-224 87,-220 91,-220 91,-200 87,-200 87,-196 91,-196 91,-192 149,-192 149,-228"/>
<polyline fill="none" stroke="black" points="91,-224 95,-224 95,-220 91,-220 "/>
<polyline fill="none" stroke="black" points="91,-200 95,-200 95,-196 91,-196 "/>
<text text-anchor="middle" x="120" y="-206.3" font-family="Ubuntu Condensed" font-size="14.00" fill="white">Switch 2</text>
</g>
<!-- sw2&#45;&gt;cnt -->
<g id="edge20" class="edge">
<title>sw2&#45;&gt;cnt</title>
<path fill="none" stroke="black" d="M142.28,-228.06C144.79,-230.86 147.12,-233.87 149,-237 164,-261.96 155.47,-273.26 167,-300 173.55,-315.19 175.97,-318.84 186,-332 186.29,-332.37 186.58,-332.75 186.87,-333.13"/>
<polygon fill="black" stroke="black" points="184.36,-335.57 193.5,-340.92 189.69,-331.03 184.36,-335.57"/>
</g>
<!-- sw2&#45;&gt;fx2 -->
<g id="edge27" class="edge">
<title>sw2&#45;&gt;fx2</title>
<path fill="none" stroke="black" d="M141.37,-191.82C144.08,-188.99 146.71,-186.01 149,-183 159.13,-169.71 158.92,-164.62 167,-150 175.37,-134.85 175.69,-129.9 186,-116 186.28,-115.62 186.57,-115.24 186.86,-114.86"/>
<polygon fill="black" stroke="black" points="189.68,-116.94 193.43,-107.03 184.32,-112.44 189.68,-116.94"/>
</g>
<!-- sw3 -->
<g id="node5" class="node">
<title>sw3</title>
<polygon fill="darkslateblue" stroke="black" points="149,-390 91,-390 91,-386 87,-386 87,-382 91,-382 91,-362 87,-362 87,-358 91,-358 91,-354 149,-354 149,-390"/>
<polyline fill="none" stroke="black" points="91,-386 95,-386 95,-382 91,-382 "/>
<polyline fill="none" stroke="black" points="91,-362 95,-362 95,-358 91,-358 "/>
<text text-anchor="middle" x="120" y="-368.3" font-family="Ubuntu Condensed" font-size="14.00" fill="white">Switch 3</text>
</g>
<!-- sw3&#45;&gt;cnt -->
<g id="edge21" class="edge">
<title>sw3&#45;&gt;cnt</title>
<path fill="none" stroke="black" d="M149.45,-375.98C155.6,-376.24 162.04,-376.05 168,-375 170.68,-374.53 173.42,-373.9 176.15,-373.18"/>
<polygon fill="black" stroke="black" points="177.36,-376.47 185.89,-370.18 175.3,-369.78 177.36,-376.47"/>
</g>
<!-- sw3&#45;&gt;fx3 -->
<g id="edge28" class="edge">
<title>sw3&#45;&gt;fx3</title>
<path fill="none" stroke="black" d="M141.35,-353.81C144.07,-350.98 146.7,-348 149,-345 169.7,-318 165.81,-305.37 186,-278 186.28,-277.62 186.57,-277.24 186.85,-276.86"/>
<polygon fill="black" stroke="black" points="189.68,-278.93 193.42,-269.02 184.32,-274.44 189.68,-278.93"/>
</g>
<!-- sw4 -->
<g id="node6" class="node">
<title>sw4</title>
<polygon fill="darkslateblue" stroke="black" points="149,-282 91,-282 91,-278 87,-278 87,-274 91,-274 91,-254 87,-254 87,-250 91,-250 91,-246 149,-246 149,-282"/>
<polyline fill="none" stroke="black" points="91,-278 95,-278 95,-274 91,-274 "/>
<polyline fill="none" stroke="black" points="91,-254 95,-254 95,-250 91,-250 "/>
<text text-anchor="middle" x="120" y="-260.3" font-family="Ubuntu Condensed" font-size="14.00" fill="white">Switch 4</text>
</g>
<!-- sw4&#45;&gt;cnt -->
<g id="edge22" class="edge">
<title>sw4&#45;&gt;cnt</title>
<path fill="none" stroke="black" d="M141.4,-282.16C144.11,-284.99 146.73,-287.98 149,-291 159.28,-304.66 155.92,-311.98 167,-325 170.17,-328.72 173.81,-332.28 177.62,-335.6"/>
<polygon fill="black" stroke="black" points="175.61,-338.48 185.58,-342.06 180.02,-333.04 175.61,-338.48"/>
</g>
<!-- sw4&#45;&gt;fx4 -->
<g id="edge29" class="edge">
<title>sw4&#45;&gt;fx4</title>
<path fill="none" stroke="black" d="M141.35,-245.81C144.07,-242.98 146.7,-240 149,-237 169.7,-210 165.81,-197.37 186,-170 186.28,-169.62 186.57,-169.24 186.85,-168.86"/>
<polygon fill="black" stroke="black" points="189.68,-170.93 193.42,-161.02 184.32,-166.44 189.68,-170.93"/>
</g>
<!-- sw5 -->
<g id="node7" class="node">
<title>sw5</title>
<polygon fill="darkslateblue" stroke="black" points="149,-174 91,-174 91,-170 87,-170 87,-166 91,-166 91,-146 87,-146 87,-142 91,-142 91,-138 149,-138 149,-174"/>
<polyline fill="none" stroke="black" points="91,-170 95,-170 95,-166 91,-166 "/>
<polyline fill="none" stroke="black" points="91,-146 95,-146 95,-142 91,-142 "/>
<text text-anchor="middle" x="120" y="-152.3" font-family="Ubuntu Condensed" font-size="14.00" fill="white">Switch 5</text>
</g>
<!-- sw5&#45;&gt;cnt -->
<g id="edge23" class="edge">
<title>sw5&#45;&gt;cnt</title>
<path fill="none" stroke="black" d="M142.38,-174C144.88,-176.81 147.18,-179.84 149,-183 166.06,-212.55 169.5,-302.14 186,-332 186.11,-332.19 186.21,-332.38 186.32,-332.57"/>
<polygon fill="black" stroke="black" points="183.53,-334.69 192.16,-340.84 189.25,-330.65 183.53,-334.69"/>
</g>
<!-- sw5&#45;&gt;fx5 -->
<g id="edge30" class="edge">
<title>sw5&#45;&gt;fx5</title>
<path fill="none" stroke="black" d="M133.86,-137.71C138.63,-130.9 144.08,-123.11 149,-116 165.56,-92.08 167.62,-84.56 186,-62 186.3,-61.63 186.6,-61.27 186.91,-60.9"/>
<polygon fill="black" stroke="black" points="189.69,-63.03 193.68,-53.22 184.44,-58.4 189.69,-63.03"/>
</g>
<!-- sw6 -->
<g id="node8" class="node">
<title>sw6</title>
<polygon fill="darkslateblue" stroke="black" points="149,-444 91,-444 91,-440 87,-440 87,-436 91,-436 91,-416 87,-416 87,-412 91,-412 91,-408 149,-408 149,-444"/>
<polyline fill="none" stroke="black" points="91,-440 95,-440 95,-436 91,-436 "/>
<polyline fill="none" stroke="black" points="91,-416 95,-416 95,-412 91,-412 "/>
<text text-anchor="middle" x="120" y="-422.3" font-family="Ubuntu Condensed" font-size="14.00" fill="white">Switch 6</text>
</g>
<!-- sw6&#45;&gt;cnt -->
<g id="edge24" class="edge">
<title>sw6&#45;&gt;cnt</title>
<path fill="none" stroke="black" d="M149.35,-430.3C155.9,-430.02 162.54,-428.58 168,-425 183.97,-414.54 175.23,-401.76 186,-386 186.19,-385.72 186.39,-385.44 186.59,-385.15"/>
<polygon fill="black" stroke="black" points="189.45,-387.18 192.95,-377.18 183.98,-382.81 189.45,-387.18"/>
</g>
<!-- sw6&#45;&gt;fx6 -->
<g id="edge31" class="edge">
<title>sw6&#45;&gt;fx6</title>
<path fill="none" stroke="black" d="M141.35,-407.81C144.07,-404.98 146.7,-402 149,-399 169.7,-372 165.81,-359.37 186,-332 186.28,-331.62 186.57,-331.24 186.85,-330.86"/>
<polygon fill="black" stroke="black" points="189.68,-332.93 193.42,-323.02 184.32,-328.44 189.68,-332.93"/>
</g>
<!-- kn1 -->
<g id="node9" class="node">
<title>kn1</title>
<polygon fill="orange" stroke="black" points="54,-134 0,-134 0,-130 -4,-130 -4,-126 0,-126 0,-106 -4,-106 -4,-102 0,-102 0,-98 54,-98 54,-134"/>
<polyline fill="none" stroke="black" points="0,-130 4,-130 4,-126 0,-126 "/>
<polyline fill="none" stroke="black" points="0,-106 4,-106 4,-102 0,-102 "/>
<text text-anchor="middle" x="27" y="-112.3" font-family="Ubuntu Condensed" font-size="14.00" fill="white">Knob 1</text>
</g>
<!-- kn1&#45;&gt;in -->
<g id="edge32" class="edge">
<title>kn1&#45;&gt;in</title>
<path fill="none" stroke="black" d="M54.32,-108.19C63.28,-105.53 73.46,-102.51 83.04,-99.67"/>
<polygon fill="black" stroke="black" points="84.15,-102.99 92.74,-96.79 82.16,-96.28 84.15,-102.99"/>
</g>
<!-- kn2 -->
<g id="node10" class="node">
<title>kn2</title>
<polygon fill="orange" stroke="black" points="240,-431 186,-431 186,-427 182,-427 182,-423 186,-423 186,-403 182,-403 182,-399 186,-399 186,-395 240,-395 240,-431"/>
<polyline fill="none" stroke="black" points="186,-427 190,-427 190,-423 186,-423 "/>
<polyline fill="none" stroke="black" points="186,-403 190,-403 190,-399 186,-399 "/>
<text text-anchor="middle" x="213" y="-409.3" font-family="Ubuntu Condensed" font-size="14.00" fill="white">Knob 2</text>
</g>
<!-- kn2&#45;&gt;mix -->
<g id="edge34" class="edge">
<title>kn2&#45;&gt;mix</title>
<path fill="none" stroke="black" d="M231.55,-394.78C264.34,-360.73 334.98,-287.39 372.47,-248.47"/>
<polygon fill="black" stroke="black" points="375.09,-250.79 379.51,-241.16 370.05,-245.94 375.09,-250.79"/>
</g>
<!-- submix -->
<g id="node17" class="node">
<title>submix</title>
<polygon fill="darkmagenta" stroke="black" points="334,-241 277,-241 277,-205 334,-205 334,-241"/>
<text text-anchor="middle" x="305.5" y="-219.3" font-family="Ubuntu Condensed" font-size="14.00" fill="white">fx mixer</text>
</g>
<!-- kn2&#45;&gt;submix -->
<g id="edge35" class="edge">
<title>kn2&#45;&gt;submix</title>
<path fill="none" stroke="black" d="M233.2,-394.92C235.68,-392.08 238.03,-389.06 240,-386 268.05,-342.39 287.33,-284.63 297.09,-250.87"/>
<polygon fill="black" stroke="black" points="300.47,-251.78 299.82,-241.21 293.74,-249.88 300.47,-251.78"/>
</g>
<!-- kn3 -->
<g id="node11" class="node">
<title>kn3</title>
<polygon fill="orange" stroke="black" points="425,-295 371,-295 371,-291 367,-291 367,-287 371,-287 371,-267 367,-267 367,-263 371,-263 371,-259 425,-259 425,-295"/>
<polyline fill="none" stroke="black" points="371,-291 375,-291 375,-287 371,-287 "/>
<polyline fill="none" stroke="black" points="371,-267 375,-267 375,-263 371,-263 "/>
<text text-anchor="middle" x="398" y="-273.3" font-family="Ubuntu Condensed" font-size="14.00" fill="white">Knob 3</text>
</g>
<!-- kn3&#45;&gt;out -->
<g id="edge33" class="edge">
<title>kn3&#45;&gt;out</title>
<path fill="none" stroke="black" d="M425.15,-273.18C446.23,-269.99 476.6,-265.15 503,-260 505.65,-259.48 508.38,-258.92 511.12,-258.34"/>
<polygon fill="black" stroke="black" points="511.98,-261.74 521,-256.19 510.48,-254.9 511.98,-261.74"/>
</g>
<!-- cnt&#45;&gt;submix -->
<g id="edge25" class="edge">
<title>cnt&#45;&gt;submix</title>
<path fill="none" stroke="black" d="M232.5,-340.92C235.13,-338.03 237.71,-335 240,-332 259.92,-305.82 278.59,-273 290.66,-250.26"/>
<polygon fill="black" stroke="black" points="293.88,-251.66 295.42,-241.17 287.68,-248.41 293.88,-251.66"/>
</g>
<!-- hin -->
<g id="node13" class="node">
<title>hin</title>
<polygon fill="red" stroke="black" points="54,-80 0,-80 0,-76 -4,-76 -4,-72 0,-72 0,-52 -4,-52 -4,-48 0,-48 0,-44 54,-44 54,-80"/>
<polyline fill="none" stroke="black" points="0,-76 4,-76 4,-72 0,-72 "/>
<polyline fill="none" stroke="black" points="0,-52 4,-52 4,-48 0,-48 "/>
<text text-anchor="middle" x="27" y="-58.3" font-family="Ubuntu Condensed" font-size="14.00" fill="white">In 1</text>
</g>
<!-- hin&#45;&gt;in -->
<g id="edge1" class="edge">
<title>hin&#45;&gt;in</title>
<path fill="none" stroke="black" d="M54.32,-69.81C63.28,-72.47 73.46,-75.49 83.04,-78.33"/>
<polygon fill="black" stroke="black" points="82.16,-81.72 92.74,-81.21 84.15,-75.01 82.16,-81.72"/>
</g>
<!-- hout -->
<g id="node14" class="node">
<title>hout</title>
<polygon fill="red" stroke="black" points="781,-268 727,-268 727,-264 723,-264 723,-260 727,-260 727,-240 723,-240 723,-236 727,-236 727,-232 781,-232 781,-268"/>
<polyline fill="none" stroke="black" points="727,-264 731,-264 731,-260 727,-260 "/>
<polyline fill="none" stroke="black" points="727,-240 731,-240 731,-236 727,-236 "/>
<text text-anchor="middle" x="754" y="-246.3" font-family="Ubuntu Condensed" font-size="14.00" fill="white">Out 1</text>
</g>
<!-- lpf&#45;&gt;hout -->
<g id="edge3" class="edge">
<title>lpf&#45;&gt;hout</title>
<path fill="none" stroke="black" d="M690.18,-250C698.84,-250 708.01,-250 716.6,-250"/>
<polygon fill="black" stroke="black" points="716.7,-253.5 726.7,-250 716.7,-246.5 716.7,-253.5"/>
</g>
<!-- mix&#45;&gt;out -->
<g id="edge4" class="edge">
<title>mix&#45;&gt;out</title>
<path fill="none" stroke="black" d="M425.12,-227.76C448.85,-232.09 484.11,-238.53 510.6,-243.36"/>
<polygon fill="black" stroke="black" points="510.18,-246.84 520.64,-245.19 511.44,-239.95 510.18,-246.84"/>
<text text-anchor="middle" x="473" y="-244.8" font-family="Helvetica,sans-Serif" font-size="14.00">sound out</text>
</g>
<!-- submix&#45;&gt;mix -->
<g id="edge18" class="edge">
<title>submix&#45;&gt;mix</title>
<path fill="none" stroke="black" d="M334.14,-223C342.51,-223 351.83,-223 360.68,-223"/>
<polygon fill="black" stroke="black" points="360.76,-226.5 370.76,-223 360.76,-219.5 360.76,-226.5"/>
</g>
<!-- fx1&#45;&gt;submix -->
<g id="edge12" class="edge">
<title>fx1&#45;&gt;submix</title>
<path fill="none" stroke="black" d="M240.18,-204.52C248.52,-206.92 257.92,-209.62 266.91,-212.2"/>
<polygon fill="black" stroke="black" points="266.23,-215.65 276.81,-215.04 268.16,-208.92 266.23,-215.65"/>
</g>
<!-- fx2&#45;&gt;submix -->
<g id="edge13" class="edge">
<title>fx2&#45;&gt;submix</title>
<path fill="none" stroke="black" d="M232.48,-107.1C235.11,-109.98 237.7,-113.01 240,-116 259.64,-141.6 278.23,-173.57 290.37,-195.87"/>
<polygon fill="black" stroke="black" points="287.34,-197.64 295.15,-204.79 293.51,-194.32 287.34,-197.64"/>
</g>
<!-- fx3&#45;&gt;submix -->
<g id="edge14" class="edge">
<title>fx3&#45;&gt;submix</title>
<path fill="none" stroke="black" d="M240.18,-242.9C248.61,-240.29 258.13,-237.35 267.2,-234.54"/>
<polygon fill="black" stroke="black" points="268.29,-237.87 276.81,-231.57 266.22,-231.18 268.29,-237.87"/>
</g>
<!-- fx4&#45;&gt;submix -->
<g id="edge15" class="edge">
<title>fx4&#45;&gt;submix</title>
<path fill="none" stroke="black" d="M234.54,-161.15C246.92,-172.1 262.86,-186.19 276.4,-198.16"/>
<polygon fill="black" stroke="black" points="274.23,-200.92 284.05,-204.92 278.87,-195.67 274.23,-200.92"/>
</g>
<!-- fx5&#45;&gt;submix -->
<g id="edge16" class="edge">
<title>fx5&#45;&gt;submix</title>
<path fill="none" stroke="black" d="M233.19,-53.08C235.67,-55.93 238.02,-58.94 240,-62 267.65,-104.79 286.93,-161.34 296.82,-194.77"/>
<polygon fill="black" stroke="black" points="293.57,-196.13 299.7,-204.77 300.29,-194.19 293.57,-196.13"/>
</g>
<!-- fx6&#45;&gt;submix -->
<g id="edge17" class="edge">
<title>fx6&#45;&gt;submix</title>
<path fill="none" stroke="black" d="M234.08,-286.8C246.62,-275.44 262.94,-260.66 276.71,-248.18"/>
<polygon fill="black" stroke="black" points="279.41,-250.46 284.47,-241.15 274.71,-245.27 279.41,-250.46"/>
</g>
</g>
</svg>
