<?xml version="1.0" encoding="UTF-8"?>
<svg xmlns="http://www.w3.org/2000/svg"
     width="120mm" height="188mm"
     viewBox="0 0 120 188">

  <rect width="120" height="188" rx="6" fill="#1a1a18"/>

  <!-- Silhouette — uniform scale 0.2541, centered -->
  <g transform="translate(14.27,0) scale(0.2541)">
    <path fill="#5C0F06" d="M104.168,162.953l0.559,11.785l-4.157,8.749c-8.805,18.525-8.837,28.492-0.326,46.968c4.136,8.978,24.728,46.86,26.277,61.806c1.095,10.546,3.151,38.826,3.416,43.269c0.442,7.422-6.575,16.402-9.492,23.217c-14.667,34.264-23.627,66.775-28.951,105.049c-1.173,8.428-3.042,16.699-5.058,22.371c-2.636,7.422-3.342,11.279-4.024,22c-0.455,7.15-5.144,42.25-10.417,78l-6.868,50.008c0,0-7.185,26.564-9.856,32.957c-2.671,6.391-6.719,21.506-7.794,24.283c-1.075,2.779-2.613,3.74-2.613,3.74s-9.671,7.191-14.508,7.91c-4.835,0.721-8.671-0.098-10.247,2.961c0,0-2.763,5.785-1.386,7.496s12.44,1.514,12.44,1.514s20.896,1.168,25.732-1.514c0.508-0.283,2.459-1.615,5.894-5.518c3.843-4.367,7.717-10.674,12.459-15.094c1.582-1.475,3.036-2.773,4.378-3.863c3.137-2.551,5.66-3.953,7.762-3.744c5.688,0.562,4.521,29.73,4.521,29.73h2.965c0,0-1.245-24.578,6.042-34.838c8.77-12.348-5.787-27.133-6.544-28.109l-1.076,0.814c0,0-3.779,1.443-1.476-9.543c2.303-10.984,4.197-19.561,4.197-19.561s6.367-25.506,13.991-44.779c6.95-17.572,10.42-35.248,10.42-53.082c0-8.176,0.115-8.555,8.943-29.525c6.074-14.43,16.858-36.322,33.616-68.244c11.102-21.146,20.565-39.955,23.946-46.143c0.34-0.621,0.537-0.938,0.752-1.092c0.262-0.186,0.514-0.131,0.633-0.131c0.137,0,0.434-0.135,0.678,0.064c0.146,0.119,0.215,0.408,0.393,0.789c2.367,5.076,5.434,26.18,9.541,42.512c5.232,20.809,11.424,37.564,12.525,51.5c1.178,14.891,2.98,20.703,8.547,27.537c4.381,5.377,4.523,5.775,5.947,16.736c4.33,33.33,6.826,78.316,5.752,101.32c-0.076,1.635-0.967,8.471-0.967,8.471c-1.562,13.16-4.709,19.943-5.697,30.859c-0.99,10.916-4.24,34.803-4.24,34.803s-11.186,9.832-12.697,11.16s-4.879,7.098,1.051,8.053c5.926,0.953,24.281,1.564,27.023,1.029s10.436-2.607,11.125-6.697c0.693-4.092,1.764-16.285,3.197-18.615c1.434-2.334,2.084-3.574,2.084-3.574s1.322,4.92,1.336,11.918c0.014,7,0.113,15.729,0.113,15.729h2.172c0,0,0.229-25.229,0.729-29.229s2.062-9.41,2.062-9.41s1.258-1.438,2.561-3.479c3.346-5.232,2.043-11.781-0.453-15.674c-1.891-2.947-4.059-5.498-5.154-6.568c-1.877-1.832-3.688-2.52-3.688-2.52s3.699-24.982,4.549-30.949c1.777-12.482,4.393-23.719,6.928-36.898c2.904-15.102,4.127-27.105,3.973-36.699c-0.154-9.596-0.678-25.018-7.316-45.801l-3.832-12l0.873-70.5c-1.6-53.035-5.494-71.986-6.611-76.5c-6.75-27.277-33.891-55.001-37.303-59.907c-7.062-10.158-11.615-20.758-11.553-32.946c0.035-6.851,9.332-35.117,17.732-46.146l13.02-23.297c2.672-4.676,26.053-14.103,45.87-29.006c20.21-15.197,36.885-35.873,41.823-40.811c9.778-9.781,11.13-17.539,4.721-22.26c-6.408-4.722-69.818-16.527-78.586-18.213c-8.77-1.687-15.516-3.373-21.585-6.071c-6.071-2.698-12.817-1.012-12.817-1.012s2.023-4.722,2.023-7.082c0-2.361-3.037-12.816-6.746-16.864c-3.71-4.048-10.117-2.36-10.117-2.36s-1.013,0-1.688-3.036c-0.676-3.036-0.336-3.035-2.023-3.71c-1.686-0.675,0,0-3.711,0.674c-3.711,0.674-18.55,0.674-24.285,3.035c-5.733,2.361-13.153,10.456-15.177,13.154c-2.024,2.699-9.78,7.757-15.515,8.433c-5.733,0.676-2.698,2.023-14.166-0.337c-5.487-1.13-22.021-4.254-38.449-5.734c-17.898-1.61-35.725-1.524-40.473-1.35c-9.107,0.338-8.77,7.421-7.757,14.167c1.011,6.746,23.607,49.242,31.029,62.733C72.509,135.712,104.168,162.953,104.168,162.953z M143.337,132.676c-2.363,3.036-16.189,4.722-17.876,4.048c0,0-5.581-7.635-13.49-14.84c-4.555-4.149-10.801-7.013-14.841-11.131c-5.086-5.187-7.706-10.53-8.77-11.805C84.986,94.9,70.822,75.339,70.822,75.339s11.18-3.058,24.958-3.71c12.766-0.605,28.098,1.187,30.694,1.348c5.396,0.337,13.489,17.539,13.152,21.248c-0.337,3.71,1.348,17.539,2.361,22.261C142.998,121.209,145.7,129.641,143.337,132.676z M250.256,126.605c-3.711,2.361-31.031,9.105-35.416,12.142c-4.385,3.036-9.78,10.119-12.141,7.758c-2.361-2.362,2.699-6.408,2.023-11.805c-0.676-5.397-0.676-5.396-2.023-12.479c-1.349-7.083,1.012-9.782,1.687-14.503c0.676-4.722,3.374-12.479,3.374-12.479s12.141-13.153,18.887-11.805c3.705,0.741,20.908,4.374,35.416,10.119c11.914,4.717,21.922,11.805,21.922,11.805S253.965,124.244,250.256,126.605z"/>
  </g>

  <!-- Jacks top -->
  <circle cx="42" cy="8" r="4" fill="#444441" stroke="#888780" stroke-width="0.5"/>
  <circle cx="42" cy="8" r="1.5" fill="#1a1a18"/>
  <text x="42" y="16" text-anchor="middle" font-family="sans-serif" font-size="3.5" fill="#888780">in</text>
  <circle cx="72" cy="8" r="4" fill="#444441" stroke="#888780" stroke-width="0.5"/>
  <circle cx="72" cy="8" r="1.5" fill="#1a1a18"/>
  <text x="72" y="16" text-anchor="middle" font-family="sans-serif" font-size="3.5" fill="#888780">out</text>

  <!-- USB left -->
  <rect x="0" y="22" width="4" height="3" rx="0.5" fill="#444441" stroke="#888780" stroke-width="0.3"/>
  <text x="2" y="21" text-anchor="middle" font-family="sans-serif" font-size="2.5" fill="#888780">usb</text>

  <!-- Power right -->
  <rect x="116" y="22" width="4" height="5" rx="0.5" fill="#444441" stroke="#888780" stroke-width="0.3"/>
  <text x="118" y="21" text-anchor="middle" font-family="sans-serif" font-size="2.5" fill="#888780">9v</text>

  <!-- Title — Bela Fumna vector paths, scale 0.814 to fit ~90mm, centered -->
  <g transform="translate(15,20) scale(0.814) translate(-61.858829,-63.149248)">
    <path fill="#ffffff" d="m 71.118378,71.731464 c 0,-0.372532 -0.06773,-0.728131 -0.186266,-1.100664 -0.135467,-0.355599 -0.3048,-0.694265 -0.507999,-1.015998 0.270932,-0.440266 0.423332,-0.999065 0.423332,-1.676397 0,-0.440266 -0.1016,-0.880531 -0.270933,-1.320797 -0.186266,-0.423333 -0.440265,-0.795865 -0.745065,-1.134531 -0.321733,-0.321733 -0.694265,-0.575732 -1.117598,-0.778932 -0.440265,-0.2032 -0.897465,-0.304799 -1.405464,-0.304799 h -5.317056 v 11.006645 h 5.469456 c 0.491066,0 0.965198,-0.08467 1.405464,-0.287866 0.440266,-0.186267 0.812798,-0.440266 1.151464,-0.778932 0.338666,-0.338666 0.592666,-0.728132 0.795866,-1.168398 0.203199,-0.440266 0.304799,-0.931332 0.304799,-1.439331 z m -3.420527,0 c 0,0.1016 -0.03387,0.169333 -0.08467,0.2032 -0.0508,0.0508 -0.1016,0.06773 -0.1524,0.06773 h -2.048929 v -4.165592 h 1.896529 c 0.08467,0 0.135467,0.03387 0.135467,0.1016 0,0.1016 -0.0508,0.135467 -0.135467,0.135467 h -1.557863 v 3.420526 h 1.710263 c 0.1524,0 0.237066,0.08467 0.237066,0.237066 z m 7.755427,-0.101599 h 4.690524 v -3.43746 h -4.690524 v -0.3556 h 3.38666 v -3.437459 h -6.807187 v 11.006645 h 6.807187 v -3.403594 h -3.38666 z m 5.604906,3.776126 h 5.757322 v -3.403594 h -2.353729 v -7.603051 h -3.403593 z m 16.696219,0 h 3.945457 l -2.980259,-5.18159 c -0.1524,-0.237066 -0.270933,-0.457199 -0.372533,-0.660399 -0.1016,-0.186266 -0.186266,-0.372533 -0.253999,-0.575732 -0.06773,-0.2032 -0.1016,-0.406399 -0.135467,-0.626532 -0.03387,-0.220133 -0.03387,-0.491066 -0.03387,-0.829732 0,-0.423332 0.0508,-0.795865 0.169333,-1.100664 0.101599,-0.3048 0.253999,-0.541866 0.457199,-0.745066 0.203199,-0.186266 0.440265,-0.321732 0.711198,-0.423332 0.270933,-0.08467 0.558799,-0.135467 0.880534,-0.135467 0.11853,0 0.254,0.01693 0.38946,0.0508 0.13547,0.03387 0.254,0.1016 0.37254,0.186267 0.11853,0.101599 0.22013,0.220133 0.3048,0.355599 0.0847,0.1524 0.13546,0.338666 0.16933,0.575732 0,0.270933 -0.0677,0.491066 -0.16933,0.660399 -0.1016,0.186266 -0.28787,0.287866 -0.5588,0.304799 -0.23707,0 -0.37254,-0.1016 -0.4064,-0.321732 0,-0.135467 0.0339,-0.270933 0.1016,-0.372533 0.0677,-0.1016 0.11853,-0.186266 0.11853,-0.287866 0,-0.118533 -0.0508,-0.220133 -0.13547,-0.321733 -0.0847,-0.08467 -0.18626,-0.135466 -0.3048,-0.135466 -0.118528,0 -0.220128,0.03387 -0.304795,0.1016 -0.101599,0.06773 -0.169333,0.169333 -0.237066,0.270932 -0.06773,0.1016 -0.1016,0.220133 -0.135466,0.3556 -0.03387,0.135466 -0.0508,0.253999 -0.0508,0.355599 0,0.338666 0.118533,0.643465 0.355599,0.897465 0.237066,0.270933 0.575728,0.389466 1.015998,0.389466 0.27093,0 0.508,-0.0508 0.7112,-0.1524 0.2032,-0.1016 0.38946,-0.253999 0.52493,-0.423332 0.13547,-0.169333 0.23707,-0.372533 0.3048,-0.592666 0.0677,-0.220133 0.11853,-0.440266 0.11853,-0.677332 0,-0.338666 -0.0677,-0.643465 -0.18626,-0.914398 -0.11854,-0.270933 -0.27094,-0.507999 -0.47414,-0.711199 -0.20319,-0.203199 -0.45719,-0.355599 -0.72813,-0.474132 -0.28786,-0.1016 -0.59266,-0.169333 -0.9144,-0.169333 -0.491061,0 -0.914393,0.08467 -1.286926,0.253999 -0.372533,0.169333 -0.677332,0.4064 -0.931332,0.677332 -0.270932,0.270933 -0.474132,0.592666 -0.626532,0.931332 -0.152399,0.355599 -0.253999,0.711198 -0.321732,1.066798 l -2.133596,-3.725326 -6.993453,12.124243 h 3.945459 l 0.558799,-0.948265 h 4.961457 z m -3.031061,-5.28319 0.507999,0.914398 H 94.19841 Z m 16.340618,1.49013 h 4.69052 v -3.43746 h -4.69052 v -0.355599 h 3.38666 v -3.43746 h -6.80719 v 11.023579 h 3.42053 z m 14.63035,-0.507999 v -6.72252 h -3.43746 v 6.72252 c 0,0.3048 -0.11854,0.558799 -0.32174,0.761999 -0.2032,0.220133 -0.4572,0.321733 -0.74506,0.321733 -0.11853,0 -0.23707,-0.01693 -0.37253,-0.06773 -0.13547,-0.03387 -0.254,-0.101599 -0.3556,-0.203199 -0.11854,-0.08467 -0.22014,-0.2032 -0.28787,-0.338666 -0.0677,-0.135467 -0.1016,-0.287866 -0.1016,-0.474133 v -6.72252 h -3.40359 v 6.72252 c 0,0.643466 0.11853,1.253065 0.37253,1.79493 0.23707,0.541866 0.57573,1.015998 0.99906,1.405464 0.4064,0.406399 0.89747,0.711199 1.43934,0.931332 0.54186,0.237066 1.11759,0.338666 1.71026,0.338666 0.6096,0 1.18533,-0.1016 1.7272,-0.338666 0.54186,-0.237067 1.03293,-0.558799 1.43933,-0.965199 0.40639,-0.406399 0.72813,-0.880531 0.96519,-1.422397 0.23707,-0.541865 0.37254,-1.117598 0.37254,-1.74413 z m 15.22304,4.301059 h 3.89465 l -6.36692,-11.463845 -2.74319,5.046124 -2.7432,-5.046124 -6.34998,11.463845 h 3.89466 l 2.42146,-4.385725 2.77706,5.07999 c 0.57573,-1.049865 1.04986,-1.89653 1.38853,-2.523062 0.33867,-0.609599 0.59267,-1.100664 0.77893,-1.43933 0.18627,-0.338666 0.32173,-0.592666 0.4064,-0.745066 0.0677,-0.135466 0.13547,-0.270932 0.2032,-0.372532 z m 8.22958,-4.724391 7.65385,6.062121 V 64.382412 h -3.42053 v 5.300123 l -7.65385,-6.045188 v 11.768644 h 3.42053 z m 18.59273,4.724391 h 3.94546 l -2.98026,-5.18159 c -0.1524,-0.237066 -0.27094,-0.457199 -0.37254,-0.660399 -0.1016,-0.186266 -0.18626,-0.372533 -0.254,-0.575732 -0.0677,-0.2032 -0.1016,-0.406399 -0.13546,-0.626532 -0.0339,-0.220133 -0.0339,-0.491066 -0.0339,-0.829732 0,-0.423332 0.0508,-0.795865 0.16933,-1.100664 0.1016,-0.3048 0.254,-0.541866 0.4572,-0.745066 0.2032,-0.186266 0.44027,-0.321732 0.7112,-0.423332 0.27094,-0.08467 0.5588,-0.135467 0.88053,-0.135467 0.11854,0 0.254,0.01693 0.38947,0.0508 0.13547,0.03387 0.254,0.1016 0.37253,0.186267 0.11854,0.101599 0.22014,0.220133 0.3048,0.355599 0.0847,0.1524 0.13547,0.338666 0.16933,0.575732 0,0.270933 -0.0677,0.491066 -0.16933,0.660399 -0.1016,0.186266 -0.28786,0.287866 -0.5588,0.304799 -0.23706,0 -0.37253,-0.1016 -0.4064,-0.321732 0,-0.135467 0.0339,-0.270933 0.1016,-0.372533 0.0677,-0.1016 0.11854,-0.186266 0.11854,-0.287866 0,-0.118533 -0.0508,-0.220133 -0.13547,-0.321733 -0.0847,-0.08467 -0.18627,-0.135466 -0.3048,-0.135466 -0.11853,0 -0.22013,0.03387 -0.3048,0.1016 -0.1016,0.06773 -0.16933,0.169333 -0.23706,0.270932 -0.0677,0.1016 -0.1016,0.220133 -0.13547,0.3556 -0.0339,0.135466 -0.0508,0.253999 -0.0508,0.355599 0,0.338666 0.11853,0.643465 0.3556,0.897465 0.23706,0.270933 0.57573,0.389466 1.016,0.389466 0.27093,0 0.508,-0.0508 0.71119,-0.1524 0.2032,-0.1016 0.38947,-0.253999 0.52494,-0.423332 0.13546,-0.169333 0.23706,-0.372533 0.3048,-0.592666 0.0677,-0.220133 0.11853,-0.440266 0.11853,-0.677332 0,-0.338666 -0.0677,-0.643465 -0.18627,-0.914398 -0.11853,-0.270933 -0.27093,-0.507999 -0.47413,-0.711199 -0.2032,-0.203199 -0.4572,-0.355599 -0.72813,-0.474132 -0.28787,-0.1016 -0.59267,-0.169333 -0.9144,-0.169333 -0.49106,0 -0.9144,0.08467 -1.28693,0.253999 -0.37253,0.169333 -0.67733,0.4064 -0.93133,0.677332 -0.27093,0.270933 -0.47413,0.592666 -0.62653,0.931332 -0.1524,0.355599 -0.254,0.711198 -0.32174,1.066798 l -2.13359,-3.725326 -6.99345,12.124243 h 3.94545 l 0.5588,-0.948265 h 4.96146 z m -3.03106,-5.28319 0.508,0.914398 h -1.03293 z"/>
  </g>

  <!-- KNOBS -->
  <circle cx="28" cy="58" r="7" fill="#333330" stroke="#888780" stroke-width="0.5"/>
  <circle cx="28" cy="58" r="4.5" fill="#1a1a18"/>
  <line x1="28" y1="54" x2="28" y2="52" stroke="#D3D1C7" stroke-width="0.8" stroke-linecap="round"/>
  <text x="28" y="69" text-anchor="middle" font-family="sans-serif" font-size="3.5" fill="#D3D1C7">input</text>
  <text x="28" y="73" text-anchor="middle" font-family="sans-serif" font-size="3" fill="#888780">K1</text>

  <circle cx="60" cy="58" r="7" fill="#333330" stroke="#888780" stroke-width="0.5"/>
  <circle cx="60" cy="58" r="4.5" fill="#1a1a18"/>
  <line x1="60" y1="54" x2="60" y2="52" stroke="#D3D1C7" stroke-width="0.8" stroke-linecap="round"/>
  <text x="60" y="69" text-anchor="middle" font-family="sans-serif" font-size="3.5" fill="#D3D1C7">spare</text>
  <text x="60" y="73" text-anchor="middle" font-family="sans-serif" font-size="3" fill="#888780">K2</text>

  <circle cx="92" cy="58" r="7" fill="#333330" stroke="#888780" stroke-width="0.5"/>
  <circle cx="92" cy="58" r="4.5" fill="#1a1a18"/>
  <line x1="92" y1="54" x2="92" y2="52" stroke="#D3D1C7" stroke-width="0.8" stroke-linecap="round"/>
  <text x="92" y="69" text-anchor="middle" font-family="sans-serif" font-size="3.5" fill="#D3D1C7">out vol</text>
  <text x="92" y="73" text-anchor="middle" font-family="sans-serif" font-size="3" fill="#888780">K3</text>

  <line x1="8" y1="78" x2="112" y2="78" stroke="#444441" stroke-width="0.3" stroke-dasharray="2 1.5"/>

  <!-- SWITCHES ROW 1 -->
  <circle cx="28" cy="108" r="8" fill="#3C3489" stroke="#7F77DD" stroke-width="0.5"/>
  <circle cx="28" cy="108" r="4" fill="#1a1a18"/>
  <circle cx="28" cy="97" r="1.5" fill="#7F77DD"/>
  <text x="28" y="120" text-anchor="middle" font-family="sans-serif" font-size="3.5" fill="#D3D1C7">oct down</text>
  <text x="28" y="124" text-anchor="middle" font-family="sans-serif" font-size="3" fill="#888780">SW1</text>

  <circle cx="60" cy="108" r="8" fill="#3C3489" stroke="#7F77DD" stroke-width="0.5"/>
  <circle cx="60" cy="108" r="4" fill="#1a1a18"/>
  <circle cx="60" cy="97" r="1.5" fill="#7F77DD"/>
  <text x="60" y="120" text-anchor="middle" font-family="sans-serif" font-size="3.5" fill="#D3D1C7">oct up</text>
  <text x="60" y="124" text-anchor="middle" font-family="sans-serif" font-size="3" fill="#888780">SW2</text>

  <circle cx="92" cy="108" r="8" fill="#3C3489" stroke="#7F77DD" stroke-width="0.5"/>
  <circle cx="92" cy="108" r="4" fill="#1a1a18"/>
  <circle cx="92" cy="97" r="1.5" fill="#7F77DD"/>
  <text x="92" y="120" text-anchor="middle" font-family="sans-serif" font-size="3.5" fill="#D3D1C7">autowah</text>
  <text x="92" y="124" text-anchor="middle" font-family="sans-serif" font-size="3" fill="#888780">SW3</text>

  <!-- SWITCHES ROW 2 -->
  <circle cx="28" cy="155" r="8" fill="#085041" stroke="#1D9E75" stroke-width="0.5"/>
  <circle cx="28" cy="155" r="4" fill="#1a1a18"/>
  <circle cx="28" cy="144" r="1.5" fill="#1D9E75"/>
  <text x="28" y="167" text-anchor="middle" font-family="sans-serif" font-size="3.5" fill="#D3D1C7">freeze</text>
  <text x="28" y="171" text-anchor="middle" font-family="sans-serif" font-size="3" fill="#888780">SW4</text>

  <circle cx="60" cy="155" r="8" fill="#085041" stroke="#1D9E75" stroke-width="0.5"/>
  <circle cx="60" cy="155" r="4" fill="#1a1a18"/>
  <circle cx="60" cy="144" r="1.5" fill="#1D9E75"/>
  <text x="60" y="167" text-anchor="middle" font-family="sans-serif" font-size="3.5" fill="#D3D1C7">sampler</text>
  <text x="60" y="171" text-anchor="middle" font-family="sans-serif" font-size="3" fill="#888780">SW5</text>

  <circle cx="92" cy="155" r="8" fill="#444441" stroke="#888780" stroke-width="0.5"/>
  <circle cx="92" cy="155" r="4" fill="#1a1a18"/>
  <circle cx="92" cy="144" r="1.5" fill="#888780"/>
  <text x="92" y="167" text-anchor="middle" font-family="sans-serif" font-size="3.5" fill="#D3D1C7">spare</text>
  <text x="92" y="171" text-anchor="middle" font-family="sans-serif" font-size="3" fill="#888780">SW6</text>

  <!-- Corner screws -->
  <circle cx="8" cy="8" r="2.5" fill="#444441" stroke="#5F5E5A" stroke-width="0.3"/>
  <circle cx="112" cy="8" r="2.5" fill="#444441" stroke="#5F5E5A" stroke-width="0.3"/>
  <circle cx="8" cy="180" r="2.5" fill="#444441" stroke="#5F5E5A" stroke-width="0.3"/>
  <circle cx="112" cy="180" r="2.5" fill="#444441" stroke="#5F5E5A" stroke-width="0.3"/>

  <rect width="120" height="188" rx="6" fill="none" stroke="#444441" stroke-width="0.5"/>

</svg>