<?xml version="1.0" encoding="UTF-8" standalone="no"?>
<!DOCTYPE svg PUBLIC "-//W3C//DTD SVG 1.1//EN"
 "http://www.w3.org/Graphics/SVG/1.1/DTD/svg11.dtd">
<!-- Generated by graphviz version 2.43.0 (0)
 -->
<!-- Title: wiring Pages: 1 -->
<svg width="904pt" height="1201pt"
 viewBox="0.00 0.00 904.00 1200.50" xmlns="http://www.w3.org/2000/svg" xmlns:xlink="http://www.w3.org/1999/xlink">
<g id="graph0" class="graph" transform="scale(1 1) rotate(0) translate(4 1196.5)">
<title>wiring</title>
<polygon fill="white" stroke="transparent" points="-4,4 -4,-1196.5 900,-1196.5 900,4 -4,4"/>
<text text-anchor="middle" x="72.5" y="-1178.9" font-family="Ubuntu Condensed" font-size="12.00">Bela Fumna — wiring diagram</text>
<g id="clust1" class="cluster">
<title>cluster_bela</title>
<polygon fill="#ddeeff" stroke="#336699" points="231,-57 231,-1081 371,-1081 371,-57 231,-57"/>
<text text-anchor="middle" x="301" y="-1068.2" font-family="Ubuntu Condensed" font-size="11.00" fill="#336699">BELA &#160;(BeagleBone Black + cape)</text>
</g>
<!-- jin -->
<g id="node1" class="node">
<title>jin</title>
<polygon fill="firebrick" stroke="black" points="120,-1053 0,-1053 0,-1017 120,-1017 120,-1053"/>
<text text-anchor="middle" x="60" y="-1038" font-family="Ubuntu Condensed" font-size="10.00" fill="white">Input jack</text>
<text text-anchor="middle" x="60" y="-1027" font-family="Ubuntu Condensed" font-size="10.00" fill="white">Lumberg KLB3 6.35mm mono</text>
</g>
<!-- ain -->
<g id="node14" class="node">
<title>ain</title>
<polygon fill="darkmagenta" stroke="black" points="327.5,-1053 273.5,-1053 273.5,-1017 327.5,-1017 327.5,-1053"/>
<text text-anchor="middle" x="300.5" y="-1038" font-family="Ubuntu Condensed" font-size="10.00" fill="white">Audio In L</text>
<text text-anchor="middle" x="300.5" y="-1027" font-family="Ubuntu Condensed" font-size="10.00" fill="white">(ch 0)</text>
</g>
<!-- jin&#45;&gt;ain -->
<g id="edge3" class="edge">
<title>jin&#45;&gt;ain</title>
<path fill="none" stroke="#444444" d="M120.26,-1035C165.15,-1035 225.38,-1035 263.32,-1035"/>
<polygon fill="#444444" stroke="#444444" points="263.4,-1038.5 273.4,-1035 263.4,-1031.5 263.4,-1038.5"/>
<text text-anchor="middle" x="191" y="-1037.6" font-family="Ubuntu Condensed" font-size="8.00"> tip → ch 0</text>
</g>
<!-- jout -->
<g id="node2" class="node">
<title>jout</title>
<polygon fill="firebrick" stroke="black" points="860.5,-952 740.5,-952 740.5,-916 860.5,-916 860.5,-952"/>
<text text-anchor="middle" x="800.5" y="-937" font-family="Ubuntu Condensed" font-size="10.00" fill="white">Output jack</text>
<text text-anchor="middle" x="800.5" y="-926" font-family="Ubuntu Condensed" font-size="10.00" fill="white">Lumberg KLB3 6.35mm mono</text>
</g>
<!-- lpf -->
<g id="node3" class="node">
<title>lpf</title>
<polygon fill="mediumpurple" stroke="black" points="590.5,-954.5 507.5,-954.5 507.5,-913.5 590.5,-913.5 590.5,-954.5"/>
<text text-anchor="middle" x="549" y="-942.5" font-family="Ubuntu Condensed" font-size="10.00" fill="white">Output LPF</text>
<text text-anchor="middle" x="549" y="-931.5" font-family="Ubuntu Condensed" font-size="10.00" fill="white">330 Ω + 22 nF (223)</text>
<text text-anchor="middle" x="549" y="-920.5" font-family="Ubuntu Condensed" font-size="10.00" fill="white">f_c ≈ 21.9 kHz</text>
</g>
<!-- lpf&#45;&gt;jout -->
<g id="edge6" class="edge">
<title>lpf&#45;&gt;jout</title>
<path fill="none" stroke="#444444" d="M590.64,-934C628.3,-934 685.11,-934 729.98,-934"/>
<polygon fill="#444444" stroke="#444444" points="730.23,-937.5 740.23,-934 730.23,-930.5 730.23,-937.5"/>
</g>
<!-- usb -->
<g id="node4" class="node">
<title>usb</title>
<polygon fill="darkorange" stroke="black" points="105.5,-650 14.5,-650 14.5,-614 105.5,-614 105.5,-650"/>
<text text-anchor="middle" x="60" y="-635" font-family="Ubuntu Condensed" font-size="10.00" fill="white">USB 5V</text>
<text text-anchor="middle" x="60" y="-624" font-family="Ubuntu Condensed" font-size="10.00" fill="white">(panel&#45;mount socket)</text>
</g>
<!-- v33 -->
<g id="node17" class="node">
<title>v33</title>
<polygon fill="darkorange" stroke="black" points="327.5,-441 273.5,-441 273.5,-405 327.5,-405 327.5,-441"/>
<text text-anchor="middle" x="300.5" y="-420.5" font-family="Ubuntu Condensed" font-size="10.00" fill="white">3.3 V</text>
</g>
<!-- usb&#45;&gt;v33 -->
<g id="edge1" class="edge">
<title>usb&#45;&gt;v33</title>
<path fill="none" stroke="#444444" d="M78.55,-613.93C121.99,-569.22 231,-457 231,-457 231,-457 247.3,-448.91 264,-440.62"/>
<polygon fill="#444444" stroke="#444444" points="265.81,-443.63 273.21,-436.05 262.7,-437.36 265.81,-443.63"/>
<text text-anchor="middle" x="191" y="-520.6" font-family="Ubuntu Condensed" font-size="8.00"> Bela reg</text>
</g>
<!-- v5 -->
<g id="node18" class="node">
<title>v5</title>
<polygon fill="darkorange" stroke="black" points="327.5,-849 273.5,-849 273.5,-813 327.5,-813 327.5,-849"/>
<text text-anchor="middle" x="300.5" y="-828.5" font-family="Ubuntu Condensed" font-size="10.00" fill="white">5 V (USB)</text>
</g>
<!-- usb&#45;&gt;v5 -->
<g id="edge2" class="edge">
<title>usb&#45;&gt;v5</title>
<path fill="none" stroke="#444444" d="M79.84,-650.29C124.1,-693.25 231,-797 231,-797 231,-797 247.3,-805.09 264,-813.38"/>
<polygon fill="#444444" stroke="#444444" points="262.7,-816.64 273.21,-817.95 265.81,-810.37 262.7,-816.64"/>
<text text-anchor="middle" x="191" y="-778.6" font-family="Ubuntu Condensed" font-size="8.00"> direct</text>
</g>
<!-- a5 -->
<g id="node5" class="node">
<title>a5</title>
<polygon fill="#336699" stroke="black" points="333.5,-305 267.5,-305 267.5,-269 333.5,-269 333.5,-305"/>
<text text-anchor="middle" x="300.5" y="-290" font-family="Ubuntu Condensed" font-size="10.00" fill="white">A5 &#160;AnalogIn 5</text>
<text text-anchor="middle" x="300.5" y="-279" font-family="Ubuntu Condensed" font-size="10.00" fill="white">K1 &#160;input gain</text>
</g>
<!-- a6 -->
<g id="node6" class="node">
<title>a6</title>
<polygon fill="#336699" stroke="black" points="333.5,-169 267.5,-169 267.5,-133 333.5,-133 333.5,-169"/>
<text text-anchor="middle" x="300.5" y="-154" font-family="Ubuntu Condensed" font-size="10.00" fill="white">A6 &#160;AnalogIn 6</text>
<text text-anchor="middle" x="300.5" y="-143" font-family="Ubuntu Condensed" font-size="10.00" fill="white">K2 &#160;blend</text>
</g>
<!-- a7 -->
<g id="node7" class="node">
<title>a7</title>
<polygon fill="#336699" stroke="black" points="333.5,-101 267.5,-101 267.5,-65 333.5,-65 333.5,-101"/>
<text text-anchor="middle" x="300.5" y="-86" font-family="Ubuntu Condensed" font-size="10.00" fill="white">A7 &#160;AnalogIn 7</text>
<text text-anchor="middle" x="300.5" y="-75" font-family="Ubuntu Condensed" font-size="10.00" fill="white">K3 &#160;output vol</text>
</g>
<!-- d0 -->
<g id="node8" class="node">
<title>d0</title>
<polygon fill="#336699" stroke="black" points="335,-373 266,-373 266,-337 335,-337 335,-373"/>
<text text-anchor="middle" x="300.5" y="-358" font-family="Ubuntu Condensed" font-size="10.00" fill="white">D0 &#160;&#160;DigitalIn 0</text>
<text text-anchor="middle" x="300.5" y="-347" font-family="Ubuntu Condensed" font-size="10.00" fill="white">SW1 &#160;oct up</text>
</g>
<!-- pd_r -->
<g id="node30" class="node">
<title>pd_r</title>
<polygon fill="lightgrey" stroke="black" points="602,-627.5 496,-627.5 496,-586.5 602,-586.5 602,-627.5"/>
<text text-anchor="middle" x="549" y="-615.5" font-family="Ubuntu Condensed" font-size="10.00">10 kΩ × 6</text>
<text text-anchor="middle" x="549" y="-604.5" font-family="Ubuntu Condensed" font-size="10.00">pull&#45;down</text>
<text text-anchor="middle" x="549" y="-593.5" font-family="Ubuntu Condensed" font-size="10.00">(pole 2, DigitalIn → GND)</text>
</g>
<!-- d0&#45;&gt;pd_r -->
<g id="edge31" class="edge">
<title>d0&#45;&gt;pd_r</title>
<path fill="none" stroke="grey" stroke-dasharray="5,2" d="M335.03,-371.4C352.8,-380.1 371,-389 371,-389 371,-389 390,-408 390,-408 390,-408 445,-445 445,-445 445,-445 496,-547 496,-547 496,-547 509.82,-562.95 523.22,-578.4"/>
<polygon fill="grey" stroke="grey" points="520.91,-581.09 530.1,-586.35 526.2,-576.5 520.91,-581.09"/>
<text text-anchor="middle" x="417.5" y="-447.6" font-family="Ubuntu Condensed" font-size="8.00"> → GND</text>
</g>
<!-- d2 -->
<g id="node9" class="node">
<title>d2</title>
<polygon fill="#336699" stroke="black" points="335,-645 266,-645 266,-609 335,-609 335,-645"/>
<text text-anchor="middle" x="300.5" y="-630" font-family="Ubuntu Condensed" font-size="10.00" fill="white">D2 &#160;&#160;DigitalIn 2</text>
<text text-anchor="middle" x="300.5" y="-619" font-family="Ubuntu Condensed" font-size="10.00" fill="white">SW2 &#160;chorus</text>
</g>
<!-- d2&#45;&gt;pd_r -->
<g id="edge32" class="edge">
<title>d2&#45;&gt;pd_r</title>
<path fill="none" stroke="grey" stroke-dasharray="5,2" d="M335.14,-626.53C377.56,-625.94 445,-625 445,-625 445,-625 464.06,-621.67 485.79,-617.87"/>
<polygon fill="grey" stroke="grey" points="486.65,-621.27 495.9,-616.11 485.44,-614.38 486.65,-621.27"/>
</g>
<!-- d4 -->
<g id="node10" class="node">
<title>d4</title>
<polygon fill="#336699" stroke="black" points="335,-781 266,-781 266,-745 335,-745 335,-781"/>
<text text-anchor="middle" x="300.5" y="-766" font-family="Ubuntu Condensed" font-size="10.00" fill="white">D4 &#160;&#160;DigitalIn 4</text>
<text text-anchor="middle" x="300.5" y="-755" font-family="Ubuntu Condensed" font-size="10.00" fill="white">SW3 &#160;oct down</text>
</g>
<!-- d4&#45;&gt;pd_r -->
<g id="edge33" class="edge">
<title>d4&#45;&gt;pd_r</title>
<path fill="none" stroke="grey" stroke-dasharray="5,2" d="M335.03,-746.6C352.8,-737.9 371,-729 371,-729 371,-729 445,-683 445,-683 445,-683 482.28,-655.49 511.99,-633.57"/>
<polygon fill="grey" stroke="grey" points="514.16,-636.32 520.13,-627.57 510,-630.69 514.16,-636.32"/>
</g>
<!-- d6 -->
<g id="node11" class="node">
<title>d6</title>
<polygon fill="#336699" stroke="black" points="335,-713 266,-713 266,-677 335,-677 335,-713"/>
<text text-anchor="middle" x="300.5" y="-698" font-family="Ubuntu Condensed" font-size="10.00" fill="white">D6 &#160;&#160;DigitalIn 6</text>
<text text-anchor="middle" x="300.5" y="-687" font-family="Ubuntu Condensed" font-size="10.00" fill="white">SW4 &#160;autowah</text>
</g>
<!-- d6&#45;&gt;pd_r -->
<g id="edge34" class="edge">
<title>d6&#45;&gt;pd_r</title>
<path fill="none" stroke="grey" stroke-dasharray="5,2" d="M335.14,-684.45C377.56,-671.15 445,-650 445,-650 445,-650 466.18,-641.16 489.33,-631.49"/>
<polygon fill="grey" stroke="grey" points="490.73,-634.7 498.61,-627.62 488.04,-628.24 490.73,-634.7"/>
</g>
<!-- d7 -->
<g id="node12" class="node">
<title>d7</title>
<polygon fill="#336699" stroke="black" points="335,-577 266,-577 266,-541 335,-541 335,-577"/>
<text text-anchor="middle" x="300.5" y="-562" font-family="Ubuntu Condensed" font-size="10.00" fill="white">D7 &#160;&#160;DigitalIn 7</text>
<text text-anchor="middle" x="300.5" y="-551" font-family="Ubuntu Condensed" font-size="10.00" fill="white">SW5 &#160;reverb</text>
</g>
<!-- d7&#45;&gt;pd_r -->
<g id="edge35" class="edge">
<title>d7&#45;&gt;pd_r</title>
<path fill="none" stroke="grey" stroke-dasharray="5,2" d="M335,-565.52C373.59,-573.04 437.82,-585.54 485.67,-594.86"/>
<polygon fill="grey" stroke="grey" points="485.13,-598.32 495.62,-596.8 486.47,-591.45 485.13,-598.32"/>
</g>
<!-- d10 -->
<g id="node13" class="node">
<title>d10</title>
<polygon fill="#336699" stroke="black" points="339,-509 262,-509 262,-473 339,-473 339,-509"/>
<text text-anchor="middle" x="300.5" y="-494" font-family="Ubuntu Condensed" font-size="10.00" fill="white">D10 &#160;DigitalIn 10</text>
<text text-anchor="middle" x="300.5" y="-483" font-family="Ubuntu Condensed" font-size="10.00" fill="white">SW6 &#160;reverse</text>
</g>
<!-- d10&#45;&gt;pd_r -->
<g id="edge36" class="edge">
<title>d10&#45;&gt;pd_r</title>
<path fill="none" stroke="grey" stroke-dasharray="5,2" d="M339.21,-508.74C380.8,-528.32 448.06,-559.97 494.96,-582.04"/>
<polygon fill="grey" stroke="grey" points="493.51,-585.23 504.05,-586.32 496.49,-578.89 493.51,-585.23"/>
</g>
<!-- aoutL -->
<g id="node15" class="node">
<title>aoutL</title>
<polygon fill="darkmagenta" stroke="black" points="329,-917 272,-917 272,-881 329,-881 329,-917"/>
<text text-anchor="middle" x="300.5" y="-896.5" font-family="Ubuntu Condensed" font-size="10.00" fill="white">Audio Out L</text>
</g>
<!-- aoutL&#45;&gt;lpf -->
<g id="edge4" class="edge">
<title>aoutL&#45;&gt;lpf</title>
<path fill="none" stroke="#444444" d="M329.3,-902.95C369.94,-908.72 446.25,-919.55 497.11,-926.77"/>
<polygon fill="#444444" stroke="#444444" points="496.85,-930.27 507.24,-928.21 497.83,-923.34 496.85,-930.27"/>
<text text-anchor="middle" x="417.5" y="-920.6" font-family="Ubuntu Condensed" font-size="8.00"> L</text>
</g>
<!-- aoutR -->
<g id="node16" class="node">
<title>aoutR</title>
<polygon fill="darkmagenta" stroke="black" points="330,-985 271,-985 271,-949 330,-949 330,-985"/>
<text text-anchor="middle" x="300.5" y="-964.5" font-family="Ubuntu Condensed" font-size="10.00" fill="white">Audio Out R</text>
</g>
<!-- aoutR&#45;&gt;lpf -->
<g id="edge5" class="edge">
<title>aoutR&#45;&gt;lpf</title>
<path fill="none" stroke="#444444" d="M330.26,-963.15C371.13,-957.68 446.65,-947.57 497.11,-940.81"/>
<polygon fill="#444444" stroke="#444444" points="497.72,-944.26 507.17,-939.47 496.79,-937.32 497.72,-944.26"/>
<text text-anchor="middle" x="417.5" y="-965.6" font-family="Ubuntu Condensed" font-size="8.00"> R &#160;(L+R summed</text>
<text text-anchor="middle" x="417.5" y="-956.6" font-family="Ubuntu Condensed" font-size="8.00">at mono jack)</text>
</g>
<!-- K1 -->
<g id="node20" class="node">
<title>K1</title>
<polygon fill="#ddcc00" stroke="black" points="113.5,-429 6.5,-429 6.5,-393 113.5,-393 113.5,-429"/>
<text text-anchor="middle" x="60" y="-414" font-family="Ubuntu Condensed" font-size="10.00">K1 &#160;input gain</text>
<text text-anchor="middle" x="60" y="-403" font-family="Ubuntu Condensed" font-size="10.00">10 kΩ linear &#160;Alpha 16mm</text>
</g>
<!-- v33&#45;&gt;K1 -->
<g id="edge7" class="edge">
<title>v33&#45;&gt;K1</title>
<path fill="none" stroke="#444444" d="M273.5,-422.6C235.95,-422.01 171,-421 171,-421 171,-421 148.58,-418.96 123.98,-416.73"/>
<polygon fill="#444444" stroke="#444444" points="124.02,-413.21 113.74,-415.79 123.39,-420.19 124.02,-413.21"/>
<text text-anchor="middle" x="191" y="-423.6" font-family="Ubuntu Condensed" font-size="8.00"> CW &#160;(3.3V ref)</text>
</g>
<!-- K2 -->
<g id="node21" class="node">
<title>K2</title>
<polygon fill="#ddcc00" stroke="black" points="113.5,-251 6.5,-251 6.5,-215 113.5,-215 113.5,-251"/>
<text text-anchor="middle" x="60" y="-236" font-family="Ubuntu Condensed" font-size="10.00">K2 &#160;blend</text>
<text text-anchor="middle" x="60" y="-225" font-family="Ubuntu Condensed" font-size="10.00">10 kΩ linear &#160;Alpha 16mm</text>
</g>
<!-- v33&#45;&gt;K2 -->
<g id="edge8" class="edge">
<title>v33&#45;&gt;K2</title>
<path fill="none" stroke="#444444" d="M273.21,-409.95C253.89,-400.36 231,-389 231,-389 231,-389 211,-320 211,-320 211,-320 145.37,-281.93 100.93,-256.16"/>
<polygon fill="#444444" stroke="#444444" points="102.49,-253.02 92.08,-251.03 98.97,-259.07 102.49,-253.02"/>
<text text-anchor="middle" x="191" y="-322.6" font-family="Ubuntu Condensed" font-size="8.00"> CW</text>
</g>
<!-- K3 -->
<g id="node22" class="node">
<title>K3</title>
<polygon fill="#ddcc00" stroke="black" points="113.5,-183 6.5,-183 6.5,-147 113.5,-147 113.5,-183"/>
<text text-anchor="middle" x="60" y="-168" font-family="Ubuntu Condensed" font-size="10.00">K3 &#160;output vol</text>
<text text-anchor="middle" x="60" y="-157" font-family="Ubuntu Condensed" font-size="10.00">10 kΩ linear &#160;Alpha 16mm</text>
</g>
<!-- v33&#45;&gt;K3 -->
<g id="edge9" class="edge">
<title>v33&#45;&gt;K3</title>
<path fill="none" stroke="#444444" d="M273.21,-409.95C253.89,-400.36 231,-389 231,-389 231,-389 211,-281 211,-281 211,-281 120,-199 120,-199 120,-199 111.66,-194.19 101.25,-188.19"/>
<polygon fill="#444444" stroke="#444444" points="102.98,-185.15 92.57,-183.19 99.49,-191.22 102.98,-185.15"/>
<text text-anchor="middle" x="191" y="-283.6" font-family="Ubuntu Condensed" font-size="8.00"> CW</text>
</g>
<!-- SW1 -->
<g id="node23" class="node">
<title>SW1</title>
<polygon fill="darkslateblue" stroke="black" points="582,-127 516,-127 516,-91 582,-91 582,-127"/>
<text text-anchor="middle" x="549" y="-112" font-family="Ubuntu Condensed" font-size="10.00" fill="white">SW1 &#160;oct up</text>
<text text-anchor="middle" x="549" y="-101" font-family="Ubuntu Condensed" font-size="10.00" fill="white">3PDT latching</text>
</g>
<!-- v33&#45;&gt;SW1 -->
<g id="edge19" class="edge">
<title>v33&#45;&gt;SW1</title>
<path fill="none" stroke="#336699" d="M327.77,-410.15C347.46,-400.52 371,-389 371,-389 371,-389 390,-144 390,-144 390,-144 458.93,-128.73 505.74,-118.36"/>
<polygon fill="#336699" stroke="#336699" points="506.64,-121.75 515.65,-116.17 505.12,-114.91 506.64,-121.75"/>
<text text-anchor="middle" x="417.5" y="-155.6" font-family="Ubuntu Condensed" font-size="8.00"> 3.3V → NC</text>
<text text-anchor="middle" x="417.5" y="-146.6" font-family="Ubuntu Condensed" font-size="8.00">(pole 2, ×6)</text>
</g>
<!-- SW2 -->
<g id="node24" class="node">
<title>SW2</title>
<polygon fill="darkslateblue" stroke="black" points="582,-342 516,-342 516,-306 582,-306 582,-342"/>
<text text-anchor="middle" x="549" y="-327" font-family="Ubuntu Condensed" font-size="10.00" fill="white">SW2 &#160;chorus</text>
<text text-anchor="middle" x="549" y="-316" font-family="Ubuntu Condensed" font-size="10.00" fill="white">3PDT latching</text>
</g>
<!-- v33&#45;&gt;SW2 -->
<g id="edge20" class="edge">
<title>v33&#45;&gt;SW2</title>
<path fill="none" stroke="#336699" d="M327.77,-410.15C347.46,-400.52 371,-389 371,-389 371,-389 390,-321 390,-321 390,-321 445,-321 445,-321 445,-321 477.31,-321.94 505.74,-322.77"/>
<polygon fill="#336699" stroke="#336699" points="505.88,-326.27 515.97,-323.07 506.08,-319.28 505.88,-326.27"/>
<text text-anchor="middle" x="417.5" y="-323.6" font-family="Ubuntu Condensed" font-size="8.00"> 3.3V → NC</text>
</g>
<!-- SW3 -->
<g id="node25" class="node">
<title>SW3</title>
<polygon fill="darkslateblue" stroke="black" points="583,-703 515,-703 515,-667 583,-667 583,-703"/>
<text text-anchor="middle" x="549" y="-688" font-family="Ubuntu Condensed" font-size="10.00" fill="white">SW3 &#160;oct down</text>
<text text-anchor="middle" x="549" y="-677" font-family="Ubuntu Condensed" font-size="10.00" fill="white">3PDT latching</text>
</g>
<!-- v33&#45;&gt;SW3 -->
<g id="edge21" class="edge">
<title>v33&#45;&gt;SW3</title>
<path fill="none" stroke="#336699" d="M327.77,-435.85C347.46,-445.48 371,-457 371,-457 371,-457 390,-501 390,-501 390,-501 496,-644 496,-644 496,-644 505.98,-651.87 517.19,-660.71"/>
<polygon fill="#336699" stroke="#336699" points="515.02,-663.45 525.04,-666.9 519.36,-657.96 515.02,-663.45"/>
</g>
<!-- SW4 -->
<g id="node26" class="node">
<title>SW4</title>
<polygon fill="darkslateblue" stroke="black" points="582.5,-531 515.5,-531 515.5,-495 582.5,-495 582.5,-531"/>
<text text-anchor="middle" x="549" y="-516" font-family="Ubuntu Condensed" font-size="10.00" fill="white">SW4 &#160;autowah</text>
<text text-anchor="middle" x="549" y="-505" font-family="Ubuntu Condensed" font-size="10.00" fill="white">3PDT latching</text>
</g>
<!-- v33&#45;&gt;SW4 -->
<g id="edge22" class="edge">
<title>v33&#45;&gt;SW4</title>
<path fill="none" stroke="#336699" d="M327.77,-435.85C347.46,-445.48 371,-457 371,-457 371,-457 390,-469 390,-469 390,-469 458.55,-488.09 505.35,-501.12"/>
<polygon fill="#336699" stroke="#336699" points="504.69,-504.57 515.26,-503.88 506.57,-497.83 504.69,-504.57"/>
</g>
<!-- SW5 -->
<g id="node27" class="node">
<title>SW5</title>
<polygon fill="darkslateblue" stroke="black" points="582,-272 516,-272 516,-236 582,-236 582,-272"/>
<text text-anchor="middle" x="549" y="-257" font-family="Ubuntu Condensed" font-size="10.00" fill="white">SW5 &#160;reverb</text>
<text text-anchor="middle" x="549" y="-246" font-family="Ubuntu Condensed" font-size="10.00" fill="white">3PDT latching</text>
</g>
<!-- v33&#45;&gt;SW5 -->
<g id="edge23" class="edge">
<title>v33&#45;&gt;SW5</title>
<path fill="none" stroke="#336699" d="M327.77,-410.15C347.46,-400.52 371,-389 371,-389 371,-389 390,-248 390,-248 390,-248 445,-248 445,-248 445,-248 477.31,-249.88 505.74,-251.54"/>
<polygon fill="#336699" stroke="#336699" points="505.79,-255.05 515.97,-252.13 506.2,-248.06 505.79,-255.05"/>
</g>
<!-- SW6 -->
<g id="node28" class="node">
<title>SW6</title>
<polygon fill="darkslateblue" stroke="black" points="582,-201 516,-201 516,-165 582,-165 582,-201"/>
<text text-anchor="middle" x="549" y="-186" font-family="Ubuntu Condensed" font-size="10.00" fill="white">SW6 &#160;reverse</text>
<text text-anchor="middle" x="549" y="-175" font-family="Ubuntu Condensed" font-size="10.00" fill="white">3PDT latching</text>
</g>
<!-- v33&#45;&gt;SW6 -->
<g id="edge24" class="edge">
<title>v33&#45;&gt;SW6</title>
<path fill="none" stroke="#336699" d="M327.77,-410.15C347.46,-400.52 371,-389 371,-389 371,-389 390,-170 390,-170 390,-170 445,-170 445,-170 445,-170 477.31,-174.08 505.74,-177.67"/>
<polygon fill="#336699" stroke="#336699" points="505.62,-181.18 515.97,-178.96 506.49,-174.23 505.62,-181.18"/>
</g>
<!-- led_r -->
<g id="node29" class="node">
<title>led_r</title>
<polygon fill="lightgrey" stroke="black" points="587.5,-776.5 510.5,-776.5 510.5,-735.5 587.5,-735.5 587.5,-776.5"/>
<text text-anchor="middle" x="549" y="-764.5" font-family="Ubuntu Condensed" font-size="10.00">100 Ω × 6</text>
<text text-anchor="middle" x="549" y="-753.5" font-family="Ubuntu Condensed" font-size="10.00">LED current limit</text>
<text text-anchor="middle" x="549" y="-742.5" font-family="Ubuntu Condensed" font-size="10.00">(pole 1, from 5V)</text>
</g>
<!-- v5&#45;&gt;led_r -->
<g id="edge16" class="edge">
<title>v5&#45;&gt;led_r</title>
<path fill="none" stroke="#444444" d="M327.82,-828.98C369.25,-825.81 445,-820 445,-820 445,-820 477.63,-799.72 506.16,-782"/>
<polygon fill="#444444" stroke="#444444" points="508.2,-784.85 514.84,-776.6 504.5,-778.91 508.2,-784.85"/>
<text text-anchor="middle" x="417.5" y="-826.6" font-family="Ubuntu Condensed" font-size="8.00"> 5V</text>
</g>
<!-- gnd -->
<g id="node19" class="node">
<title>gnd</title>
<polygon fill="darkorange" stroke="black" points="327.5,-237 273.5,-237 273.5,-201 327.5,-201 327.5,-237"/>
<text text-anchor="middle" x="300.5" y="-216.5" font-family="Ubuntu Condensed" font-size="10.00" fill="white">GND</text>
</g>
<!-- K1&#45;&gt;a5 -->
<g id="edge10" class="edge">
<title>K1&#45;&gt;a5</title>
<path fill="none" stroke="#444444" d="M113.88,-398.31C157.07,-387.94 211,-375 211,-375 211,-375 231,-321 231,-321 231,-321 243.68,-314.71 258.13,-307.53"/>
<polygon fill="#444444" stroke="#444444" points="259.85,-310.59 267.26,-303 256.74,-304.32 259.85,-310.59"/>
<text text-anchor="middle" x="191" y="-385.6" font-family="Ubuntu Condensed" font-size="8.00"> wiper</text>
</g>
<!-- K1&#45;&gt;gnd -->
<g id="edge13" class="edge">
<title>K1&#45;&gt;gnd</title>
<path fill="none" stroke="grey" stroke-dasharray="5,2" d="M94.29,-392.8C138.48,-368.64 211,-329 211,-329 211,-329 231,-253 231,-253 231,-253 247.3,-244.91 264,-236.62"/>
<polygon fill="grey" stroke="grey" points="265.81,-239.63 273.21,-232.05 262.7,-233.36 265.81,-239.63"/>
<text text-anchor="middle" x="191" y="-350.6" font-family="Ubuntu Condensed" font-size="8.00"> CCW</text>
</g>
<!-- K2&#45;&gt;a6 -->
<g id="edge11" class="edge">
<title>K2&#45;&gt;a6</title>
<path fill="none" stroke="#444444" d="M113.64,-214.9C157.1,-199.96 217.96,-179.04 258.03,-165.26"/>
<polygon fill="#444444" stroke="#444444" points="259.18,-168.56 267.5,-162 256.9,-161.94 259.18,-168.56"/>
<text text-anchor="middle" x="191" y="-196.6" font-family="Ubuntu Condensed" font-size="8.00"> wiper</text>
</g>
<!-- K2&#45;&gt;gnd -->
<g id="edge14" class="edge">
<title>K2&#45;&gt;gnd</title>
<path fill="none" stroke="grey" stroke-dasharray="5,2" d="M113.64,-229.91C159.09,-227.24 223.57,-223.46 263.4,-221.12"/>
<polygon fill="grey" stroke="grey" points="263.68,-224.61 273.46,-220.53 263.27,-217.62 263.68,-224.61"/>
</g>
<!-- K3&#45;&gt;a7 -->
<g id="edge12" class="edge">
<title>K3&#45;&gt;a7</title>
<path fill="none" stroke="#444444" d="M113.64,-146.9C157.1,-131.96 217.96,-111.04 258.03,-97.26"/>
<polygon fill="#444444" stroke="#444444" points="259.18,-100.56 267.5,-94 256.9,-93.94 259.18,-100.56"/>
<text text-anchor="middle" x="191" y="-129.6" font-family="Ubuntu Condensed" font-size="8.00"> wiper</text>
</g>
<!-- K3&#45;&gt;gnd -->
<g id="edge15" class="edge">
<title>K3&#45;&gt;gnd</title>
<path fill="none" stroke="grey" stroke-dasharray="5,2" d="M113.64,-176.92C159.19,-187.23 223.84,-201.87 263.66,-210.88"/>
<polygon fill="grey" stroke="grey" points="262.93,-214.31 273.46,-213.1 264.48,-207.48 262.93,-214.31"/>
</g>
<!-- SW1&#45;&gt;d0 -->
<g id="edge25" class="edge">
<title>SW1&#45;&gt;d0</title>
<path fill="none" stroke="#444444" d="M520.13,-90.87C489.62,-71.03 445,-42 445,-42 445,-42 390,-42 390,-42 390,-42 371,-321 371,-321 371,-321 358.52,-327.11 344.14,-334.14"/>
<polygon fill="#444444" stroke="#444444" points="342.47,-331.06 335.03,-338.6 345.55,-337.35 342.47,-331.06"/>
<text text-anchor="middle" x="417.5" y="-62.6" font-family="Ubuntu Condensed" font-size="8.00"> COM → pin</text>
<text text-anchor="middle" x="417.5" y="-53.6" font-family="Ubuntu Condensed" font-size="8.00">(not latched: HIGH</text>
<text text-anchor="middle" x="417.5" y="-44.6" font-family="Ubuntu Condensed" font-size="8.00">latched: LOW)</text>
</g>
<!-- SW1&#45;&gt;gnd -->
<g id="edge18" class="edge">
<title>SW1&#45;&gt;gnd</title>
<path fill="none" stroke="grey" stroke-dasharray="5,2" d="M530.53,-90.51C501.14,-59.41 445,0 445,0 445,0 390,0 390,0 390,0 371,-185 371,-185 371,-185 354.24,-193.2 337.18,-201.55"/>
<polygon fill="grey" stroke="grey" points="335.22,-198.61 327.77,-206.15 338.3,-204.9 335.22,-198.61"/>
<text text-anchor="middle" x="417.5" y="-2.6" font-family="Ubuntu Condensed" font-size="8.00"> LED− via COM</text>
</g>
<!-- SW2&#45;&gt;d2 -->
<g id="edge26" class="edge">
<title>SW2&#45;&gt;d2</title>
<path fill="none" stroke="#444444" d="M515.65,-339.56C469.42,-361.8 390,-400 390,-400 390,-400 371,-593 371,-593 371,-593 358.52,-599.11 344.14,-606.14"/>
<polygon fill="#444444" stroke="#444444" points="342.47,-603.06 335.03,-610.6 345.55,-609.35 342.47,-603.06"/>
</g>
<!-- SW3&#45;&gt;d4 -->
<g id="edge27" class="edge">
<title>SW3&#45;&gt;d4</title>
<path fill="none" stroke="#444444" d="M521.09,-703.12C508.4,-711.66 496,-720 496,-720 496,-720 445,-781 445,-781 445,-781 390,-781 390,-781 390,-781 367.4,-776.4 345.05,-771.86"/>
<polygon fill="#444444" stroke="#444444" points="345.71,-768.42 335.21,-769.86 344.31,-775.28 345.71,-768.42"/>
</g>
<!-- SW4&#45;&gt;d6 -->
<g id="edge28" class="edge">
<title>SW4&#45;&gt;d6</title>
<path fill="none" stroke="#444444" d="M525.7,-531.21C482.14,-566.77 390,-642 390,-642 390,-642 371,-661 371,-661 371,-661 358.52,-667.11 344.14,-674.14"/>
<polygon fill="#444444" stroke="#444444" points="342.47,-671.06 335.03,-678.6 345.55,-677.35 342.47,-671.06"/>
</g>
<!-- SW5&#45;&gt;d7 -->
<g id="edge29" class="edge">
<title>SW5&#45;&gt;d7</title>
<path fill="none" stroke="#444444" d="M515.65,-266.08C469.42,-283.34 390,-313 390,-313 390,-313 371,-525 371,-525 371,-525 358.52,-531.11 344.14,-538.14"/>
<polygon fill="#444444" stroke="#444444" points="342.47,-535.06 335.03,-542.6 345.55,-541.35 342.47,-535.06"/>
</g>
<!-- SW6&#45;&gt;d10 -->
<g id="edge30" class="edge">
<title>SW6&#45;&gt;d10</title>
<path fill="none" stroke="#444444" d="M520.12,-201C474.76,-230.28 390,-285 390,-285 390,-285 371,-457 371,-457 371,-457 360.58,-462.1 347.81,-468.35"/>
<polygon fill="#444444" stroke="#444444" points="346.14,-465.27 338.69,-472.81 349.21,-471.56 346.14,-465.27"/>
</g>
<!-- led_r&#45;&gt;SW1 -->
<g id="edge17" class="edge">
<title>led_r&#45;&gt;SW1</title>
<path fill="none" stroke="#444444" d="M519.4,-735.34C507.26,-726.86 496,-719 496,-719 496,-719 412.5,-467.5 412.5,-467.5 412.5,-467.5 412.5,-458.5 412.5,-458.5 412.5,-458.5 496,-149 496,-149 496,-149 505.69,-141.69 516.78,-133.32"/>
<polygon fill="#444444" stroke="#444444" points="519.11,-135.95 524.98,-127.13 514.89,-130.36 519.11,-135.95"/>
<text text-anchor="middle" x="417.5" y="-461.1" font-family="Ubuntu Condensed" font-size="8.00"> → NO (pole 1, ×6)</text>
</g>
<!-- pd_r&#45;&gt;gnd -->
<g id="edge37" class="edge">
<title>pd_r&#45;&gt;gnd</title>
<path fill="none" stroke="grey" stroke-dasharray="5,2" d="M530.1,-586.35C515.06,-569 496,-547 496,-547 496,-547 445,-411 445,-411 445,-411 390,-338 390,-338 390,-338 371,-253 371,-253 371,-253 354.24,-244.8 337.18,-236.45"/>
<polygon fill="grey" stroke="grey" points="338.3,-233.1 327.77,-231.85 335.22,-239.39 338.3,-233.1"/>
</g>
<!-- legend -->
<g id="node31" class="node">
<title>legend</title>
<polygon fill="#fffbe6" stroke="black" points="890,-1171.5 705,-1171.5 705,-984.5 896,-984.5 896,-1165.5 890,-1171.5"/>
<polyline fill="none" stroke="black" points="890,-1171.5 890,-1165.5 "/>
<polyline fill="none" stroke="black" points="896,-1165.5 890,-1165.5 "/>
<text text-anchor="start" x="713" y="-1159.5" font-family="Ubuntu Condensed" font-size="10.00" fill="#555555">Per&#45;switch wiring (all 6 identical):</text>
<text text-anchor="start" x="713" y="-1136.5" font-family="Ubuntu Condensed" font-size="10.00" fill="#555555"> &#160;Pole 1 — LED (hardware, no software):</text>
<text text-anchor="start" x="713" y="-1125.5" font-family="Ubuntu Condensed" font-size="10.00" fill="#555555"> &#160;&#160;&#160;5V → 100Ω → NO</text>
<text text-anchor="start" x="713" y="-1114.5" font-family="Ubuntu Condensed" font-size="10.00" fill="#555555"> &#160;&#160;&#160;COM → LED+ → LED&#45; → GND</text>
<text text-anchor="start" x="713" y="-1103.5" font-family="Ubuntu Condensed" font-size="10.00" fill="#555555"> &#160;&#160;&#160;Latched ON → NO&#45;COM closed → LED on</text>
<text text-anchor="start" x="713" y="-1080.5" font-family="Ubuntu Condensed" font-size="10.00" fill="#555555"> &#160;Pole 2 — DigitalIn (active&#45;low):</text>
<text text-anchor="start" x="713" y="-1069.5" font-family="Ubuntu Condensed" font-size="10.00" fill="#555555"> &#160;&#160;&#160;3.3V → NC terminal</text>
<text text-anchor="start" x="713" y="-1058.5" font-family="Ubuntu Condensed" font-size="10.00" fill="#555555"> &#160;&#160;&#160;COM → DigitalIn pin + 10kΩ pull&#45;down → GND</text>
<text text-anchor="start" x="713" y="-1047.5" font-family="Ubuntu Condensed" font-size="10.00" fill="#555555"> &#160;&#160;&#160;Not latched: NC closed → 3.3V → pin HIGH (1)</text>
<text text-anchor="start" x="713" y="-1036.5" font-family="Ubuntu Condensed" font-size="10.00" fill="#555555"> &#160;&#160;&#160;Latched: &#160;&#160;&#160;&#160;NC open &#160;→ pull&#45;down → pin LOW (0)</text>
<text text-anchor="start" x="713" y="-1025.5" font-family="Ubuntu Condensed" font-size="10.00" fill="#555555"> &#160;&#160;&#160;SC: sw = 1 &#45; DigitalIn.kr(pin)</text>
<text text-anchor="start" x="713" y="-1014.5" font-family="Ubuntu Condensed" font-size="10.00" fill="#555555"> &#160;&#160;&#160;&#160;&#160;&#160;&#160;latched (0) → sw=1 → effect active</text>
<text text-anchor="start" x="713" y="-991.5" font-family="Ubuntu Condensed" font-size="10.00" fill="#555555"> &#160;Pole 3 — unused</text>
</g>
</g>
</svg>
